<svg width="184" height="60" viewBox="0 0 184 60" fill="none" xmlns="http://www.w3.org/2000/svg">
<path d="M70.7478 32C70.4865 32.0467 70.2111 32.0793 69.9218 32.098C69.6418 32.1167 69.3758 32.126 69.1238 32.126C68.8718 32.126 68.5965 32.1167 68.2978 32.098C67.9991 32.0793 67.7191 32.0467 67.4578 32V13.044L67.6538 12.876H70.7198V14.318C70.7198 15.0553 70.7245 15.7973 70.7338 16.544C70.7431 17.2907 70.7478 18.0187 70.7478 18.728V32ZM78.9098 12.876C78.9751 13.0627 79.0171 13.2727 79.0358 13.506C79.0638 13.7393 79.0778 13.9587 79.0778 14.164C79.0778 14.696 78.9285 15.0833 78.6298 15.326C78.3311 15.5593 77.8738 15.676 77.2578 15.676H73.2678C72.5118 15.676 71.8165 15.6713 71.1818 15.662C70.5565 15.6433 69.9731 15.6247 69.4318 15.606V12.876H78.9098ZM77.3838 21.038C77.4398 21.2433 77.4771 21.4767 77.4958 21.738C77.5238 21.9993 77.5378 22.2187 77.5378 22.396C77.5378 22.5827 77.5238 22.802 77.4958 23.054C77.4771 23.306 77.4398 23.5393 77.3838 23.754H71.7978C71.4431 23.754 71.0558 23.7493 70.6358 23.74C70.2158 23.7307 69.8378 23.7213 69.5018 23.712V21.08C69.8378 21.0707 70.2158 21.0613 70.6358 21.052C71.0558 21.0427 71.4431 21.038 71.7978 21.038H77.3838ZM94.9374 18.56C94.9374 19.428 94.7741 20.2073 94.4474 20.898C94.1301 21.5887 93.7007 22.1673 93.1594 22.634C92.6274 23.1007 92.0394 23.446 91.3954 23.67C91.8714 23.8287 92.2727 24.132 92.5994 24.58C92.9354 25.0187 93.2061 25.518 93.4114 26.078L94.5734 29.172C94.7694 29.704 94.9654 30.124 95.1614 30.432C95.3574 30.74 95.5861 31.0013 95.8474 31.216C95.6327 31.5147 95.3154 31.7573 94.8954 31.944C94.4754 32.1213 94.0554 32.21 93.6354 32.21C93.0287 32.21 92.5854 32.042 92.3054 31.706C92.0254 31.37 91.7641 30.8753 91.5214 30.222L90.2054 26.61C89.9907 26.0033 89.6921 25.49 89.3094 25.07C88.9267 24.65 88.3107 24.44 87.4614 24.44H84.0594V21.92C84.4607 21.9013 84.9274 21.8827 85.4594 21.864C86.0007 21.8453 86.5281 21.8313 87.0414 21.822C87.5547 21.8127 87.9747 21.808 88.3014 21.808C89.1694 21.808 89.8367 21.6493 90.3034 21.332C90.7794 21.0053 91.1061 20.5947 91.2834 20.1C91.4701 19.6053 91.5634 19.092 91.5634 18.56C91.5634 18.0093 91.4701 17.4867 91.2834 16.992C91.1061 16.4973 90.7794 16.096 90.3034 15.788C89.8367 15.4707 89.1694 15.312 88.3014 15.312C87.9281 15.312 87.4661 15.312 86.9154 15.312C86.3741 15.3027 85.8701 15.2933 85.4034 15.284V32C85.1421 32.0467 84.8621 32.0793 84.5634 32.098C84.2741 32.1167 84.0034 32.126 83.7514 32.126C83.5367 32.126 83.2754 32.1167 82.9674 32.098C82.6594 32.0793 82.3841 32.0467 82.1414 32V13.03L82.3374 12.848C83.4107 12.8293 84.4607 12.8107 85.4874 12.792C86.5141 12.764 87.5174 12.75 88.4974 12.75C89.7947 12.75 90.9241 12.9693 91.8854 13.408C92.8561 13.8467 93.6074 14.4953 94.1394 15.354C94.6714 16.2127 94.9374 17.2813 94.9374 18.56ZM99.0258 13.058L99.2078 12.876H102.232V15.564C102.232 15.956 102.237 16.2827 102.246 16.544C102.255 16.8053 102.26 17.1273 102.26 17.51V27.786C102.26 28.0567 102.255 28.3087 102.246 28.542C102.237 28.766 102.232 29.0227 102.232 29.312V32.042H100.916C100.328 32.042 99.8658 31.8647 99.5298 31.51C99.1938 31.1553 99.0258 30.6653 99.0258 30.04V13.058ZM109.092 20.996C109.157 21.2013 109.199 21.4347 109.218 21.696C109.246 21.9573 109.26 22.1767 109.26 22.354C109.26 22.5407 109.246 22.76 109.218 23.012C109.199 23.2547 109.157 23.488 109.092 23.712H104.038C103.814 23.712 103.529 23.712 103.184 23.712C102.839 23.7027 102.479 23.6933 102.106 23.684C101.733 23.6747 101.406 23.67 101.126 23.67V21.038C101.406 21.038 101.733 21.0333 102.106 21.024C102.479 21.0147 102.839 21.01 103.184 21.01C103.529 21.0007 103.814 20.996 104.038 20.996H109.092ZM110.646 12.876C110.693 13.1187 110.721 13.352 110.73 13.576C110.739 13.7907 110.744 13.9913 110.744 14.178C110.744 14.3647 110.725 14.5933 110.688 14.864C110.651 15.1347 110.585 15.396 110.492 15.648H104.038C103.814 15.648 103.529 15.648 103.184 15.648C102.839 15.6387 102.479 15.634 102.106 15.634C101.733 15.6247 101.406 15.6153 101.126 15.606V12.876H110.646ZM111.22 29.27C111.22 30.2407 111.071 30.9453 110.772 31.384C110.473 31.8227 109.899 32.042 109.05 32.042H101.126V29.396C101.602 29.368 102.069 29.34 102.526 29.312C102.993 29.284 103.525 29.27 104.122 29.27H111.22ZM113.233 30.278C113.279 29.802 113.433 29.3353 113.695 28.878C113.965 28.4207 114.264 28.0567 114.591 27.786C115.393 28.3087 116.289 28.752 117.279 29.116C118.277 29.48 119.262 29.662 120.233 29.662C121.297 29.662 122.113 29.4287 122.683 28.962C123.252 28.486 123.537 27.8933 123.537 27.184C123.537 26.596 123.341 26.064 122.949 25.588C122.557 25.1027 121.955 24.6873 121.143 24.342L117.769 22.928C116.593 22.4333 115.65 21.794 114.941 21.01C114.241 20.226 113.891 19.2227 113.891 18C113.891 16.9547 114.161 16.0213 114.703 15.2C115.253 14.3693 116.014 13.7113 116.985 13.226C117.955 12.7407 119.066 12.498 120.317 12.498C121.521 12.498 122.645 12.652 123.691 12.96C124.745 13.268 125.637 13.6087 126.365 13.982C126.346 14.4487 126.229 14.9107 126.015 15.368C125.809 15.8253 125.539 16.2033 125.203 16.502C124.475 16.1473 123.667 15.8393 122.781 15.578C121.894 15.3167 121.087 15.186 120.359 15.186C119.369 15.186 118.599 15.424 118.049 15.9C117.507 16.376 117.237 16.95 117.237 17.622C117.237 18.182 117.433 18.6487 117.825 19.022C118.217 19.386 118.749 19.7127 119.421 20.002L122.795 21.388C123.607 21.7333 124.33 22.158 124.965 22.662C125.599 23.166 126.094 23.754 126.449 24.426C126.813 25.098 126.995 25.8493 126.995 26.68C126.995 27.7627 126.738 28.738 126.225 29.606C125.711 30.4647 124.937 31.1413 123.901 31.636C122.874 32.1307 121.581 32.378 120.023 32.378C118.875 32.378 117.694 32.1913 116.481 31.818C115.277 31.4447 114.194 30.9313 113.233 30.278ZM135.301 23.53C135.208 23.53 135.054 23.53 134.839 23.53C134.634 23.5207 134.424 23.516 134.209 23.516C134.004 23.5067 133.85 23.502 133.747 23.502C133.43 23.502 133.103 23.5067 132.767 23.516C132.44 23.5253 132.114 23.53 131.787 23.53V20.73C132.114 20.73 132.44 20.7347 132.767 20.744C133.103 20.7533 133.43 20.758 133.747 20.758C133.85 20.758 134.004 20.758 134.209 20.758C134.424 20.7487 134.634 20.744 134.839 20.744C135.054 20.7347 135.208 20.73 135.301 20.73H139.725C139.818 20.73 139.968 20.7347 140.173 20.744C140.388 20.744 140.602 20.7487 140.817 20.758C141.032 20.758 141.186 20.758 141.279 20.758C141.606 20.758 141.932 20.7533 142.259 20.744C142.586 20.7347 142.908 20.73 143.225 20.73V23.53C142.908 23.53 142.586 23.5253 142.259 23.516C141.932 23.5067 141.606 23.502 141.279 23.502C141.186 23.502 141.032 23.5067 140.817 23.516C140.602 23.516 140.388 23.5207 140.173 23.53C139.968 23.53 139.818 23.53 139.725 23.53H135.301ZM133.775 32C133.514 32.0467 133.234 32.0793 132.935 32.098C132.636 32.1167 132.361 32.126 132.109 32.126C131.885 32.126 131.619 32.1167 131.311 32.098C131.003 32.0793 130.728 32.0467 130.485 32V12.876C130.728 12.8293 131.003 12.7967 131.311 12.778C131.619 12.7593 131.885 12.75 132.109 12.75C132.361 12.75 132.636 12.7593 132.935 12.778C133.234 12.7967 133.514 12.8293 133.775 12.876V18.686C133.775 19.078 133.77 19.428 133.761 19.736C133.752 20.0347 133.747 20.3753 133.747 20.758V23.502C133.747 23.8753 133.752 24.216 133.761 24.524C133.77 24.832 133.775 25.182 133.775 25.574V32ZM141.251 25.574C141.251 25.182 141.256 24.832 141.265 24.524C141.274 24.216 141.279 23.8753 141.279 23.502V20.758C141.279 20.3753 141.274 20.0347 141.265 19.736C141.256 19.428 141.251 19.078 141.251 18.686V12.876C141.503 12.8293 141.774 12.7967 142.063 12.778C142.362 12.7593 142.632 12.75 142.875 12.75C143.108 12.75 143.379 12.7593 143.687 12.778C143.995 12.7967 144.275 12.8293 144.527 12.876V32C144.275 32.0467 144.004 32.0793 143.715 32.098C143.426 32.1167 143.155 32.126 142.903 32.126C142.651 32.126 142.376 32.1167 142.077 32.098C141.788 32.0793 141.512 32.0467 141.251 32V25.574ZM149.42 13.058L149.602 12.876H152.626V15.564C152.626 15.956 152.631 16.2827 152.64 16.544C152.65 16.8053 152.654 17.1273 152.654 17.51V27.786C152.654 28.0567 152.65 28.3087 152.64 28.542C152.631 28.766 152.626 29.0227 152.626 29.312V32.042H151.31C150.722 32.042 150.26 31.8647 149.924 31.51C149.588 31.1553 149.42 30.6653 149.42 30.04V13.058ZM159.486 20.996C159.552 21.2013 159.594 21.4347 159.612 21.696C159.64 21.9573 159.654 22.1767 159.654 22.354C159.654 22.5407 159.64 22.76 159.612 23.012C159.594 23.2547 159.552 23.488 159.486 23.712H154.432C154.208 23.712 153.924 23.712 153.578 23.712C153.233 23.7027 152.874 23.6933 152.5 23.684C152.127 23.6747 151.8 23.67 151.52 23.67V21.038C151.8 21.038 152.127 21.0333 152.5 21.024C152.874 21.0147 153.233 21.01 153.578 21.01C153.924 21.0007 154.208 20.996 154.432 20.996H159.486ZM161.04 12.876C161.087 13.1187 161.115 13.352 161.124 13.576C161.134 13.7907 161.138 13.9913 161.138 14.178C161.138 14.3647 161.12 14.5933 161.082 14.864C161.045 15.1347 160.98 15.396 160.886 15.648H154.432C154.208 15.648 153.924 15.648 153.578 15.648C153.233 15.6387 152.874 15.634 152.5 15.634C152.127 15.6247 151.8 15.6153 151.52 15.606V12.876H161.04ZM161.614 29.27C161.614 30.2407 161.465 30.9453 161.166 31.384C160.868 31.8227 160.294 32.042 159.444 32.042H151.52V29.396C151.996 29.368 152.463 29.34 152.92 29.312C153.387 29.284 153.919 29.27 154.516 29.27H161.614ZM165.321 12.918C165.592 12.862 165.923 12.82 166.315 12.792C166.716 12.764 167.034 12.75 167.267 12.75C167.519 12.75 167.822 12.7593 168.177 12.778C168.541 12.7967 168.886 12.8293 169.213 12.876L168.359 16.67L168.121 16.726C168.168 17.398 168.21 18.154 168.247 18.994C168.284 19.834 168.312 20.6833 168.331 21.542C168.359 22.3913 168.373 23.1707 168.373 23.88V32C168.102 32.0467 167.836 32.0793 167.575 32.098C167.323 32.1167 167.09 32.126 166.875 32.126C166.67 32.126 166.427 32.1167 166.147 32.098C165.867 32.0793 165.592 32.0467 165.321 32V12.918ZM169.955 20.59C169.619 19.8993 169.306 19.2227 169.017 18.56C168.728 17.8973 168.462 17.272 168.219 16.684L166.679 14.864L169.213 12.876L174.813 24.272C175.177 25.0187 175.513 25.7467 175.821 26.456C176.129 27.156 176.409 27.7907 176.661 28.36L178.299 30.082L175.625 32L169.955 20.59ZM179.531 12.904V31.958C179.27 32.014 178.948 32.056 178.565 32.084C178.182 32.112 177.846 32.126 177.557 32.126C177.286 32.126 176.978 32.1167 176.633 32.098C176.297 32.0793 175.961 32.0467 175.625 32L176.507 28.374L176.759 28.332C176.712 27.5573 176.666 26.7313 176.619 25.854C176.582 24.9673 176.554 24.104 176.535 23.264C176.516 22.424 176.507 21.682 176.507 21.038V14.766C176.507 14.038 176.638 13.52 176.899 13.212C177.17 12.904 177.632 12.75 178.285 12.75H179.363L179.531 12.904Z" fill="white"/>
<path d="M99.0418 45.896C99.0418 46.248 99.0658 46.61 99.1138 46.982C99.1658 47.35 99.2598 47.692 99.3958 48.008C99.5318 48.32 99.7258 48.572 99.9778 48.764C100.23 48.956 100.56 49.052 100.968 49.052C101.372 49.052 101.7 48.956 101.952 48.764C102.204 48.572 102.396 48.32 102.528 48.008C102.664 47.692 102.756 47.35 102.804 46.982C102.856 46.61 102.882 46.248 102.882 45.896C102.882 45.544 102.856 45.184 102.804 44.816C102.756 44.448 102.664 44.108 102.528 43.796C102.396 43.484 102.204 43.232 101.952 43.04C101.7 42.848 101.372 42.752 100.968 42.752C100.56 42.752 100.23 42.848 99.9778 43.04C99.7258 43.232 99.5318 43.484 99.3958 43.796C99.2598 44.108 99.1658 44.448 99.1138 44.816C99.0658 45.184 99.0418 45.544 99.0418 45.896ZM97.5718 45.896C97.5718 45.08 97.6938 44.352 97.9378 43.712C98.1858 43.072 98.5598 42.568 99.0598 42.2C99.5638 41.828 100.2 41.642 100.968 41.642C101.74 41.642 102.376 41.828 102.876 42.2C103.38 42.568 103.754 43.074 103.998 43.718C104.242 44.358 104.364 45.084 104.364 45.896C104.364 46.716 104.24 47.448 103.992 48.092C103.748 48.732 103.374 49.238 102.87 49.61C102.37 49.978 101.736 50.162 100.968 50.162C100.196 50.162 99.5578 49.976 99.0538 49.604C98.5538 49.232 98.1818 48.724 97.9378 48.08C97.6938 47.436 97.5718 46.708 97.5718 45.896ZM111.452 44.24C111.452 44.612 111.382 44.946 111.242 45.242C111.106 45.538 110.922 45.786 110.69 45.986C110.462 46.186 110.21 46.334 109.934 46.43C110.138 46.498 110.31 46.628 110.45 46.82C110.594 47.008 110.71 47.222 110.798 47.462L111.296 48.788C111.38 49.016 111.464 49.196 111.548 49.328C111.632 49.46 111.73 49.572 111.842 49.664C111.75 49.792 111.614 49.896 111.434 49.976C111.254 50.052 111.074 50.09 110.894 50.09C110.634 50.09 110.444 50.018 110.324 49.874C110.204 49.73 110.092 49.518 109.988 49.238L109.424 47.69C109.332 47.43 109.204 47.21 109.04 47.03C108.876 46.85 108.612 46.76 108.248 46.76H106.79V45.68C106.962 45.672 107.162 45.664 107.39 45.656C107.622 45.648 107.848 45.642 108.068 45.638C108.288 45.634 108.468 45.632 108.608 45.632C108.98 45.632 109.266 45.564 109.466 45.428C109.67 45.288 109.81 45.112 109.886 44.9C109.966 44.688 110.006 44.468 110.006 44.24C110.006 44.004 109.966 43.78 109.886 43.568C109.81 43.356 109.67 43.184 109.466 43.052C109.266 42.916 108.98 42.848 108.608 42.848C108.448 42.848 108.25 42.848 108.014 42.848C107.782 42.844 107.566 42.84 107.366 42.836V50C107.254 50.02 107.134 50.034 107.006 50.042C106.882 50.05 106.766 50.054 106.658 50.054C106.566 50.054 106.454 50.05 106.322 50.042C106.19 50.034 106.072 50.02 105.968 50V41.87L106.052 41.792C106.512 41.784 106.962 41.776 107.402 41.768C107.842 41.756 108.272 41.75 108.692 41.75C109.248 41.75 109.732 41.844 110.144 42.032C110.56 42.22 110.882 42.498 111.11 42.866C111.338 43.234 111.452 43.692 111.452 44.24ZM118.98 42.518C118.952 42.73 118.868 42.932 118.728 43.124C118.592 43.316 118.454 43.46 118.314 43.556C118.026 43.344 117.698 43.172 117.33 43.04C116.962 42.904 116.59 42.836 116.214 42.836C115.79 42.836 115.41 42.94 115.074 43.148C114.742 43.352 114.478 43.684 114.282 44.144C114.09 44.6 113.994 45.21 113.994 45.974C113.994 47.01 114.186 47.776 114.57 48.272C114.958 48.768 115.534 49.016 116.298 49.016C116.714 49.016 117.098 48.972 117.45 48.884C117.802 48.792 118.076 48.708 118.272 48.632L118.992 49.652C118.756 49.74 118.478 49.824 118.158 49.904C117.838 49.98 117.498 50.042 117.138 50.09C116.778 50.138 116.414 50.162 116.046 50.162C115.41 50.162 114.868 50.054 114.42 49.838C113.976 49.618 113.616 49.316 113.34 48.932C113.064 48.544 112.862 48.096 112.734 47.588C112.61 47.08 112.548 46.538 112.548 45.962C112.548 45.206 112.648 44.556 112.848 44.012C113.052 43.464 113.326 43.016 113.67 42.668C114.018 42.316 114.408 42.058 114.84 41.894C115.272 41.726 115.718 41.642 116.178 41.642C116.682 41.642 117.182 41.722 117.678 41.882C118.178 42.042 118.612 42.254 118.98 42.518ZM117.66 47.594C117.66 47.314 117.668 47.048 117.684 46.796C117.7 46.54 117.734 46.312 117.786 46.112L118.992 46.52V49.652L117.66 49.676V47.594ZM118.014 45.62C118.378 45.62 118.632 45.7 118.776 45.86C118.92 46.02 118.992 46.24 118.992 46.52V46.814H116.742C116.554 46.814 116.392 46.776 116.256 46.7C116.124 46.624 116.058 46.462 116.058 46.214C116.058 46.118 116.068 46.016 116.088 45.908C116.108 45.8 116.132 45.704 116.16 45.62H118.014ZM122.64 41.804C122.752 41.788 122.886 41.776 123.042 41.768C123.202 41.756 123.34 41.75 123.456 41.75C123.564 41.75 123.698 41.756 123.858 41.768C124.018 41.776 124.148 41.79 124.248 41.81L126.918 49.91C126.818 49.97 126.694 50.014 126.546 50.042C126.398 50.074 126.252 50.09 126.108 50.09C125.884 50.09 125.71 50.04 125.586 49.94C125.462 49.836 125.356 49.636 125.268 49.34L124.038 45.392C123.93 45.044 123.818 44.668 123.702 44.264C123.59 43.86 123.488 43.492 123.396 43.16H123.33C123.29 43.348 123.24 43.554 123.18 43.778C123.124 44.002 123.066 44.222 123.006 44.438C122.946 44.654 122.892 44.842 122.844 45.002L121.272 50.012C121.184 50.032 121.088 50.046 120.984 50.054C120.884 50.062 120.778 50.066 120.666 50.066C120.55 50.066 120.43 50.056 120.306 50.036C120.182 50.02 120.076 49.998 119.988 49.97L119.94 49.898L122.64 41.804ZM122.538 48.074C122.498 48.074 122.424 48.074 122.316 48.074C122.212 48.07 122.106 48.068 121.998 48.068C121.894 48.064 121.82 48.062 121.776 48.062H121.098L121.53 46.934H122.13C122.17 46.934 122.236 46.934 122.328 46.934C122.424 46.93 122.52 46.928 122.616 46.928C122.712 46.924 122.78 46.922 122.82 46.922H123.954C123.998 46.922 124.066 46.924 124.158 46.928C124.254 46.928 124.352 46.93 124.452 46.934C124.552 46.934 124.622 46.934 124.662 46.934H125.274L125.646 48.062H124.968C124.928 48.062 124.854 48.064 124.746 48.068C124.638 48.068 124.53 48.07 124.422 48.074C124.314 48.074 124.24 48.074 124.2 48.074H122.538ZM128.187 41.822C128.303 41.798 128.445 41.78 128.613 41.768C128.785 41.756 128.921 41.75 129.021 41.75C129.129 41.75 129.259 41.754 129.411 41.762C129.567 41.77 129.715 41.784 129.855 41.804L129.489 43.43L129.387 43.454C129.407 43.742 129.425 44.066 129.441 44.426C129.457 44.786 129.469 45.15 129.477 45.518C129.489 45.882 129.495 46.216 129.495 46.52V50C129.379 50.02 129.265 50.034 129.153 50.042C129.045 50.05 128.945 50.054 128.853 50.054C128.765 50.054 128.661 50.05 128.541 50.042C128.421 50.034 128.303 50.02 128.187 50V41.822ZM130.173 45.11C130.029 44.814 129.895 44.524 129.771 44.24C129.647 43.956 129.533 43.688 129.429 43.436L128.769 42.656L129.855 41.804L132.255 46.688C132.411 47.008 132.555 47.32 132.687 47.624C132.819 47.924 132.939 48.196 133.047 48.44L133.749 49.178L132.603 50L130.173 45.11ZM134.277 41.816V49.982C134.165 50.006 134.027 50.024 133.863 50.036C133.699 50.048 133.555 50.054 133.431 50.054C133.315 50.054 133.183 50.05 133.035 50.042C132.891 50.034 132.747 50.02 132.603 50L132.981 48.446L133.089 48.428C133.069 48.096 133.049 47.742 133.029 47.366C133.013 46.986 133.001 46.616 132.993 46.256C132.985 45.896 132.981 45.578 132.981 45.302V42.614C132.981 42.302 133.037 42.08 133.149 41.948C133.265 41.816 133.463 41.75 133.743 41.75H134.205L134.277 41.816ZM136.426 41.804C136.53 41.784 136.648 41.77 136.78 41.762C136.912 41.754 137.026 41.75 137.122 41.75C137.23 41.75 137.346 41.754 137.47 41.762C137.598 41.77 137.718 41.784 137.83 41.804V50C137.718 50.02 137.598 50.034 137.47 50.042C137.346 50.05 137.23 50.054 137.122 50.054C137.026 50.054 136.912 50.05 136.78 50.042C136.648 50.034 136.53 50.02 136.426 50V41.804ZM144.374 44.72C144.378 44.412 144.332 44.11 144.236 43.814C144.144 43.514 143.98 43.266 143.744 43.07C143.512 42.874 143.188 42.776 142.772 42.776C142.164 42.776 141.708 43.046 141.404 43.586C141.104 44.126 140.954 44.912 140.954 45.944C140.954 46.908 141.122 47.648 141.458 48.164C141.798 48.68 142.27 48.938 142.874 48.938C143.254 48.938 143.618 48.858 143.966 48.698C144.318 48.534 144.66 48.314 144.992 48.038C145.14 48.134 145.282 48.268 145.418 48.44C145.554 48.612 145.642 48.78 145.682 48.944C145.458 49.168 145.188 49.372 144.872 49.556C144.556 49.74 144.208 49.888 143.828 50C143.448 50.108 143.048 50.162 142.628 50.162C142.044 50.162 141.55 50.044 141.146 49.808C140.746 49.568 140.422 49.246 140.174 48.842C139.93 48.438 139.752 47.986 139.64 47.486C139.532 46.982 139.478 46.466 139.478 45.938C139.478 44.938 139.63 44.122 139.934 43.49C140.238 42.858 140.642 42.392 141.146 42.092C141.654 41.792 142.208 41.642 142.808 41.642C143.408 41.642 143.926 41.754 144.362 41.978C144.802 42.198 145.14 42.488 145.376 42.848C145.616 43.204 145.736 43.592 145.736 44.012C145.736 44.26 145.672 44.454 145.544 44.594C145.416 44.734 145.214 44.804 144.938 44.804C144.834 44.804 144.738 44.798 144.65 44.786C144.566 44.77 144.474 44.748 144.374 44.72ZM149.129 49.262C149.149 49.058 149.215 48.858 149.327 48.662C149.443 48.466 149.571 48.31 149.711 48.194C150.055 48.418 150.439 48.608 150.863 48.764C151.291 48.92 151.713 48.998 152.129 48.998C152.585 48.998 152.935 48.898 153.179 48.698C153.423 48.494 153.545 48.24 153.545 47.936C153.545 47.684 153.461 47.456 153.293 47.252C153.125 47.044 152.867 46.866 152.519 46.718L151.073 46.112C150.569 45.9 150.165 45.626 149.861 45.29C149.561 44.954 149.411 44.524 149.411 44C149.411 43.552 149.527 43.152 149.759 42.8C149.995 42.444 150.321 42.162 150.737 41.954C151.153 41.746 151.629 41.642 152.165 41.642C152.681 41.642 153.163 41.708 153.611 41.84C154.063 41.972 154.445 42.118 154.757 42.278C154.749 42.478 154.699 42.676 154.607 42.872C154.519 43.068 154.403 43.23 154.259 43.358C153.947 43.206 153.601 43.074 153.221 42.962C152.841 42.85 152.495 42.794 152.183 42.794C151.759 42.794 151.429 42.896 151.193 43.1C150.961 43.304 150.845 43.55 150.845 43.838C150.845 44.078 150.929 44.278 151.097 44.438C151.265 44.594 151.493 44.734 151.781 44.858L153.227 45.452C153.575 45.6 153.885 45.782 154.157 45.998C154.429 46.214 154.641 46.466 154.793 46.754C154.949 47.042 155.027 47.364 155.027 47.72C155.027 48.184 154.917 48.602 154.697 48.974C154.477 49.342 154.145 49.632 153.701 49.844C153.261 50.056 152.707 50.162 152.039 50.162C151.547 50.162 151.041 50.082 150.521 49.922C150.005 49.762 149.541 49.542 149.129 49.262ZM155.354 42.986C155.334 42.882 155.32 42.78 155.312 42.68C155.308 42.576 155.306 42.482 155.306 42.398C155.306 42.31 155.308 42.216 155.312 42.116C155.32 42.012 155.334 41.908 155.354 41.804H160.958C160.982 41.88 161 41.968 161.012 42.068C161.024 42.168 161.03 42.264 161.03 42.356C161.03 42.584 160.968 42.746 160.844 42.842C160.72 42.938 160.526 42.986 160.262 42.986H159.56C159.48 42.986 159.364 42.984 159.212 42.98C159.06 42.976 158.942 42.974 158.858 42.974H157.448C157.368 42.974 157.252 42.976 157.1 42.98C156.948 42.984 156.83 42.986 156.746 42.986H155.354ZM157.448 43.862C157.448 43.698 157.448 43.552 157.448 43.424C157.452 43.292 157.454 43.142 157.454 42.974V42.392H158.852V42.974C158.852 43.142 158.852 43.292 158.852 43.424C158.856 43.552 158.858 43.698 158.858 43.862V50C158.746 50.02 158.626 50.034 158.498 50.042C158.374 50.05 158.26 50.054 158.156 50.054C158.052 50.054 157.936 50.05 157.808 50.042C157.684 50.034 157.564 50.02 157.448 50V43.862ZM162.827 45.896C162.827 46.248 162.851 46.61 162.899 46.982C162.951 47.35 163.045 47.692 163.181 48.008C163.317 48.32 163.511 48.572 163.763 48.764C164.015 48.956 164.345 49.052 164.753 49.052C165.157 49.052 165.485 48.956 165.737 48.764C165.989 48.572 166.181 48.32 166.313 48.008C166.449 47.692 166.541 47.35 166.589 46.982C166.641 46.61 166.667 46.248 166.667 45.896C166.667 45.544 166.641 45.184 166.589 44.816C166.541 44.448 166.449 44.108 166.313 43.796C166.181 43.484 165.989 43.232 165.737 43.04C165.485 42.848 165.157 42.752 164.753 42.752C164.345 42.752 164.015 42.848 163.763 43.04C163.511 43.232 163.317 43.484 163.181 43.796C163.045 44.108 162.951 44.448 162.899 44.816C162.851 45.184 162.827 45.544 162.827 45.896ZM161.357 45.896C161.357 45.08 161.479 44.352 161.723 43.712C161.971 43.072 162.345 42.568 162.845 42.2C163.349 41.828 163.985 41.642 164.753 41.642C165.525 41.642 166.161 41.828 166.661 42.2C167.165 42.568 167.539 43.074 167.783 43.718C168.027 44.358 168.149 45.084 168.149 45.896C168.149 46.716 168.025 47.448 167.777 48.092C167.533 48.732 167.159 49.238 166.655 49.61C166.155 49.978 165.521 50.162 164.753 50.162C163.981 50.162 163.343 49.976 162.839 49.604C162.339 49.232 161.967 48.724 161.723 48.08C161.479 47.436 161.357 46.708 161.357 45.896ZM175.237 44.24C175.237 44.612 175.167 44.946 175.027 45.242C174.891 45.538 174.707 45.786 174.475 45.986C174.247 46.186 173.995 46.334 173.719 46.43C173.923 46.498 174.095 46.628 174.235 46.82C174.379 47.008 174.495 47.222 174.583 47.462L175.081 48.788C175.165 49.016 175.249 49.196 175.333 49.328C175.417 49.46 175.515 49.572 175.627 49.664C175.535 49.792 175.399 49.896 175.219 49.976C175.039 50.052 174.859 50.09 174.679 50.09C174.419 50.09 174.229 50.018 174.109 49.874C173.989 49.73 173.877 49.518 173.773 49.238L173.209 47.69C173.117 47.43 172.989 47.21 172.825 47.03C172.661 46.85 172.397 46.76 172.033 46.76H170.575V45.68C170.747 45.672 170.947 45.664 171.175 45.656C171.407 45.648 171.633 45.642 171.853 45.638C172.073 45.634 172.253 45.632 172.393 45.632C172.765 45.632 173.051 45.564 173.251 45.428C173.455 45.288 173.595 45.112 173.671 44.9C173.751 44.688 173.791 44.468 173.791 44.24C173.791 44.004 173.751 43.78 173.671 43.568C173.595 43.356 173.455 43.184 173.251 43.052C173.051 42.916 172.765 42.848 172.393 42.848C172.233 42.848 172.035 42.848 171.799 42.848C171.567 42.844 171.351 42.84 171.151 42.836V50C171.039 50.02 170.919 50.034 170.791 50.042C170.667 50.05 170.551 50.054 170.443 50.054C170.351 50.054 170.239 50.05 170.107 50.042C169.975 50.034 169.857 50.02 169.753 50V41.87L169.837 41.792C170.297 41.784 170.747 41.776 171.187 41.768C171.627 41.756 172.057 41.75 172.477 41.75C173.033 41.75 173.517 41.844 173.929 42.032C174.345 42.22 174.667 42.498 174.895 42.866C175.123 43.234 175.237 43.692 175.237 44.24ZM176.989 41.882L177.067 41.804H178.363V42.956C178.363 43.124 178.365 43.264 178.369 43.376C178.373 43.488 178.375 43.626 178.375 43.79V48.194C178.375 48.31 178.373 48.418 178.369 48.518C178.365 48.614 178.363 48.724 178.363 48.848V50.018H177.799C177.547 50.018 177.349 49.942 177.205 49.79C177.061 49.638 176.989 49.428 176.989 49.16V41.882ZM181.303 45.284C181.331 45.372 181.349 45.472 181.357 45.584C181.369 45.696 181.375 45.79 181.375 45.866C181.375 45.946 181.369 46.04 181.357 46.148C181.349 46.252 181.331 46.352 181.303 46.448H179.137C179.041 46.448 178.919 46.448 178.771 46.448C178.623 46.444 178.469 46.44 178.309 46.436C178.149 46.432 178.009 46.43 177.889 46.43V45.302C178.009 45.302 178.149 45.3 178.309 45.296C178.469 45.292 178.623 45.29 178.771 45.29C178.919 45.286 179.041 45.284 179.137 45.284H181.303ZM181.969 41.804C181.989 41.908 182.001 42.008 182.005 42.104C182.009 42.196 182.011 42.282 182.011 42.362C182.011 42.442 182.003 42.54 181.987 42.656C181.971 42.772 181.943 42.884 181.903 42.992H179.137C179.041 42.992 178.919 42.992 178.771 42.992C178.623 42.988 178.469 42.986 178.309 42.986C178.149 42.982 178.009 42.978 177.889 42.974V41.804H181.969ZM182.215 48.83C182.215 49.246 182.151 49.548 182.023 49.736C181.895 49.924 181.649 50.018 181.285 50.018H177.889V48.884C178.093 48.872 178.293 48.86 178.489 48.848C178.689 48.836 178.917 48.83 179.173 48.83H182.215Z" fill="#86BC42"/>
<path opacity="0.2" d="M50.006 59.0356C50.006 58.5242 39.5066 58.103 26.5704 58.103C13.6342 58.103 3.13477 58.5242 3.13477 59.0356C3.13477 59.5471 13.6342 59.9682 26.5704 59.9682C39.5367 59.9682 50.006 59.5471 50.006 59.0356Z" fill="#5D5D5D"/>
<path d="M26.9014 11.8037C37.1 11.8037 45.3731 20.0769 45.3731 30.2754V48.7472H26.9014C16.7029 48.7472 8.42969 40.474 8.42969 30.2754V11.8037H26.9014Z" fill="#86BC42"/>
<path opacity="0.3" d="M42.7267 20.7686C41.1924 22.5435 40.2598 24.86 40.2598 27.3871C40.2598 31.1476 42.3055 34.4268 45.344 36.2018V30.2752C45.344 26.8155 44.4114 23.5664 42.7267 20.7686Z" fill="#86BC42"/>
<path d="M35.4756 13.9395C32.5875 15.5941 30.6621 18.6928 30.6621 22.2728C30.6621 27.5676 34.9642 31.8697 40.259 31.8697C42.1242 31.8697 43.8691 31.3281 45.3432 30.3955V30.2752C45.3432 23.1753 41.342 17.008 35.4756 13.9395Z" fill="#86BC42"/>
<path opacity="0.5" d="M20.9748 15.3833C16.2215 15.3833 11.8593 17.0379 8.42969 19.8358V30.3051C8.42969 40.5036 16.7029 48.7768 26.9014 48.7768H35.7462C38.9652 45.2269 40.9207 40.5337 40.9207 35.3592C40.9207 24.3183 31.9856 15.3833 20.9748 15.3833Z" fill="#FFD96A"/>
<path d="M45.343 48.7168L26.9014 48.7469C16.7029 48.7469 8.42969 40.4737 8.42969 30.2751V11.8335L45.343 48.7168Z" fill="#86BC42"/>
<path opacity="0.3" d="M11.2871 18.4219C11.2871 32.4412 22.659 43.7829 36.6481 43.7829C37.8515 43.7829 39.0248 43.6927 40.168 43.5422L11.5278 14.9321C11.3774 16.0753 11.2871 17.2486 11.2871 18.4219Z" fill="#86BC42"/>
<path opacity="0.3" d="M45.343 48.7468L8.58008 11.9839C12.9122 18.452 17.9062 25.0104 22.9904 30.4255C26.9615 34.6373 38.4236 44.0537 45.343 48.7468Z" fill="#86BC42"/>
<path opacity="0.3" d="M20.4935 23.8672L8.42969 11.8335V30.3052C8.42969 38.458 13.7245 45.3774 21.035 47.8142C17.9062 44.6554 15.9808 40.3233 15.9808 35.57C15.9808 31.0573 17.6956 26.9659 20.4935 23.8672Z" fill="#86BC42"/>
<path opacity="0.3" d="M36.9191 40.3232C33.7903 44.1439 29.037 46.6108 23.7121 46.6108C20.1622 46.6108 16.8529 45.5278 14.1152 43.6626C17.4245 46.8214 21.9071 48.7769 26.871 48.7769H45.3427V48.7468L36.9191 40.3232Z" fill="#86BC42"/>
<path opacity="0.3" d="M9.51272 22.8744C9.51272 19.8961 10.0242 17.008 10.9868 14.3606L8.42969 11.8335V30.3052C8.42969 40.5038 16.7029 48.7769 26.9014 48.7769H45.3731V48.7469L43.538 46.9117C40.8605 47.8744 38.0025 48.3858 34.9941 48.3858C20.9146 48.3558 9.51272 36.9538 9.51272 22.8744Z" fill="#FFD96A"/>
<path d="M45.0408 52.327C46.3344 51.9659 47.6882 52.7481 48.0191 54.0418C48.3802 55.3354 47.598 56.6892 46.2743 57.0201C44.9806 57.3811 43.6268 56.5989 43.2959 55.3053C42.965 54.0117 43.7472 52.688 45.0408 52.327ZM44.5595 50.4918C42.243 51.1236 40.8591 53.4702 41.4909 55.7866C42.0925 58.1031 44.4692 59.487 46.7857 58.8552C49.1022 58.2235 50.4861 55.8468 49.8543 53.5604C49.2526 51.2439 46.8759 49.8901 44.5595 50.4918Z" fill="white"/>
<path opacity="0.5" d="M47.6275 56.1475C47.2966 56.5687 46.8453 56.8996 46.3038 57.05C45.0102 57.411 43.6564 56.6288 43.3254 55.3352C43.0848 54.3725 43.4157 53.4098 44.1377 52.8382C43.7767 52.3268 43.4759 51.7552 43.175 51.1836C41.731 52.2065 41.009 54.0416 41.4903 55.8467C42.092 58.1631 44.4686 59.547 46.7851 58.9152C47.8682 58.6144 48.7406 57.9526 49.3122 57.0801C48.7406 56.7793 48.169 56.4784 47.6275 56.1475Z" fill="white"/>
<path d="M9.30075 52.3269C10.5944 51.9959 11.9482 52.7781 12.2791 54.0717C12.61 55.3654 11.8278 56.7192 10.5342 57.0501C9.24058 57.381 7.88679 56.5988 7.55587 55.3052C7.22494 54.0116 8.00713 52.6578 9.30075 52.3269ZM8.8194 50.4917C6.50292 51.0934 5.11904 53.4701 5.72073 55.7865C6.32241 58.103 8.69907 59.4869 11.0156 58.8852C13.332 58.2835 14.7159 55.9069 14.1443 53.5904C13.5125 51.2739 11.1359 49.89 8.8194 50.4917Z" fill="white"/>
<path opacity="0.5" d="M11.8585 56.1779C11.5276 56.5991 11.0764 56.93 10.5348 57.0503C9.24121 57.3812 7.88742 56.5991 7.5565 55.3054C7.31582 54.3427 7.67683 53.38 8.36877 52.8084C8.00776 52.297 7.70692 51.7254 7.43616 51.1538C5.99212 52.1466 5.24001 53.9817 5.72136 55.7868C6.32304 58.1033 8.6997 59.4871 11.0162 58.8855C12.0992 58.6147 13.0017 57.9228 13.5433 57.0503C12.9416 56.8096 12.4001 56.5088 11.8585 56.1779Z" fill="white"/>
<path d="M9.60226 10.54C9.03066 10.54 8.54931 10.0586 8.54931 9.48705C8.54931 7.02014 7.85738 5.15492 6.53367 3.92146C4.39769 1.90582 1.17868 2.11641 1.14859 2.11641C0.576992 2.17658 0.0655599 1.72531 0.0053914 1.15371C-0.0547771 0.582111 0.396486 0.0706792 0.968087 0.0105107C1.14859 0.0105107 5.11971 -0.290332 7.94763 2.327C9.75268 3.98163 10.6552 6.38837 10.6552 9.45696C10.6552 10.0586 10.2039 10.54 9.60226 10.54Z" fill="white"/>
</svg>
